<?xml version="1.0" encoding="utf-8"?>
<!-- Generator: Adobe Illustrator 19.1.0, SVG Export Plug-In . SVG Version: 6.00 Build 0)  -->
<svg version="1.0" id="Layer_1" xmlns="http://www.w3.org/2000/svg" xmlns:xlink="http://www.w3.org/1999/xlink" x="0px" y="0px"
	 viewBox="0 249.3 609.7 249.6" style="enable-background:new 0 249.3 609.7 249.6;" xml:space="preserve">
<style type="text/css">
	.st0{fill:#FFFFFF;}
</style>
<g id="BACKGROUND">
</g>
<g id="LOGOS">
	<g>
		<path class="st0" d="M609.7,498.9H0V249.3h609.7V498.9z M7,491.9h595.7V256.3H7V491.9z"/>
		<g>
			<path class="st0" d="M294.2,372.3c-4.3,4.6-8.5,9.2-12.9,13.6c-3.2,3.2-6.9,5.8-11.5,6.6c-4.2,0.7-7.1-1.5-7.4-5.8
				c-0.3-4.6,1.3-8.8,3.2-12.8c1.8-3.7,3.8-7.3,5.6-11c0.4-0.9,0.4-2.1,0.5-3.1c-1,0.2-2.1,0.2-2.9,0.8c-5.4,3.7-10.8,7.4-16,11.2
				c-10.4,7.6-20.7,15.3-31.2,22.8c-4.7,3.3-9.9,6-15.4,7.7c-6.6,2-12.1-0.1-16.7-4.9c-4.3-4.5-7.4-9.9-10.2-15.4
				c-0.7-1.3,0.1-1.8,1-2.3c6.2-3.3,12.4-6.5,18.5-10.1c2.8-1.6,5.4-3.7,7.9-5.9c2-1.8,3.5-4,2.6-7c-0.1-0.4,0.3-1.3,0.7-1.4
				c0.4-0.1,1.2,0.2,1.5,0.6c1.4,2.1,1.6,4.4,0.6,6.8c-1.6,3.8-4.5,6.5-7.8,8.7c-5,3.3-10.3,6.2-15.5,9.3c-0.6,0.4-1.3,0.7-2.1,1.1
				c2.4,5.2,5,10.1,9.1,14c4.2,4,9,3.6,13.9,1.8c8.1-2.9,15.2-7.6,22.1-12.7c10-7.4,19.8-15.1,29.9-22.4c3.4-2.5,7.3-4.5,11.1-6.3
				c1.4-0.7,3.3-0.5,4.9-0.2c2,0.4,3,2.1,2.3,4c-1,3-2.1,6-3.4,8.9c-1.9,4.3-4.1,8.6-6,12.9c-0.5,1.2-0.7,2.5-0.8,3.8
				c-0.2,2.6,1.1,3.6,3.4,2.6c2.1-1,4.2-2.3,5.9-3.8c6.3-5.4,11.3-11.9,15.8-18.9c1.7-2.7,4.2-3.8,7.2-3.8c2.2,0,3,1,2.4,3.1
				c-3.3,11.8-6.6,23.6-9.9,35.3c-0.1,0.5-0.3,1-0.6,1.9c5.4-2.9,10.7-5.5,15.6-8.5c10.1-6.2,20.1-12.6,30.1-18.9
				c0.9-0.6,1.7-1.7,2-2.7c7.8-22.8,18-44.3,32.5-63.6c5.6-7.5,11.8-14.4,19.8-19.4c3.3-2.1,6.9-3.6,10.9-4.1
				c8.5-1,13.8,4.6,12.8,13.1c-1,8.1-4.9,14.9-9.4,21.4c-6.6,9.3-14.5,17.3-22.9,24.9c-10.5,9.4-21.6,18-33.5,25.6
				c-0.7,0.4-1.2,1.2-1.5,2c-2.8,7.9-5.1,16-6.2,24.3c-0.4,3-0.4,6-0.1,9c0.5,5.1,3.6,7.5,8.5,6.2c3.6-0.9,7.2-2.2,10.6-3.9
				c14.3-6.8,27.4-15.5,40.5-24.4c3.5-2.3,6.9-4.7,10.3-7.1c0.8-0.6,1.4-1.6,1.6-2.5c2.2-11.1,12.6-20.6,23.8-21.4
				c2.5-0.2,5.2,0,7.7,0.5c2.7,0.5,4.8,2.2,6.4,4.5c0.4,0.5,1.2,0.8,1.9,1c0.9,0.3,2,0.3,2.9,0.7c2.9,1.1,3.2,2,2.2,4.9
				c-2.5,7.7-5,15.4-7.3,23.2c-0.6,1.9-0.4,4.1-0.2,6.1c0.2,2.3,1.7,3.6,4,3.5c4.3-0.1,8.2-1.7,12.1-3.4
				c12.3-5.6,23.5-13.1,34.5-21.1c6-4.4,11.7-9.1,16.6-14.8c0.7-0.8,0.9-1.4,0.5-2.5c-1.3-3.7,0.5-8.9,3.8-10.9
				c1-0.6,2.5-0.8,3.6-0.4c1.4,0.5,1.2,2.1,0.7,3.3c-1.2,2.6-2.5,5.1-3.8,7.7c-0.2,0.4-0.5,0.7-0.8,1.3c1.2,0.8,2.3,1.6,3.4,2.3
				c1.9,1.2,3.9,2.2,5.7,3.6c2.9,2.2,3.5,4.3,1.6,7.5c-1.9,3.3-4.2,6.4-6.3,9.5c-3,4.3-6.1,8.5-9,12.9c-1,1.4-1.6,3.1-2,4.8
				c-1.1,3.8,1,6.5,4.8,5.8c3.6-0.7,7.2-1.9,10.5-3.5c8.9-4.4,16.8-10.3,24.8-16.2c4.2-3.1,8.4-6.2,12.6-9.4
				c0.2-0.2,0.5-0.5,0.8-0.5c0.7-0.1,1.4,0,2.1,0c-0.2,0.7-0.3,1.6-0.8,1.9c-3.2,2.5-6.4,4.9-9.7,7.4c-8.6,6.5-17.2,13.3-26.8,18.3
				c-4.1,2.1-8.5,3.7-12.9,5.1c-1.9,0.6-4.2,0.5-6.2,0.1c-5.2-1-7.7-5.2-6.7-10.5c1-5,3.7-9.1,6.7-13c2.7-3.5,5.5-6.8,8.1-10.3
				c4.4-5.9,4.2-7.2-1-12.3c-0.4-0.4-0.9-0.8-1-1c-3.1,3-6.1,5.9-9.2,8.7c-8.8,7.9-18.6,14.3-28.6,20.6c-6.7,4.2-13.7,8.1-21.2,10.7
				c-3.6,1.2-7.1,2.4-11.1,1.8c-4-0.6-5.8-3.5-6.4-6.6c-0.9-4.9,0.2-9.6,1.3-14.3c0.7-2.8,1.6-5.5,2.1-8.4c-0.4,0.6-0.8,1.2-1.2,1.8
				c-4.1,5.8-8.8,11.1-15.1,14.6c-4.4,2.4-8.9,3.2-13.3,0.1c-3-2-4.1-5.2-4.8-8.9c-2.2,1.6-4.4,3.1-6.5,4.6
				c-13.1,9.2-26.4,18.2-40.7,25.6c-5.7,2.9-11.5,5.6-17.8,6.9c-4.2,0.8-8.7,1-11.4-3.2c-1.4-2.1-2.2-4.8-2.5-7.3
				c-0.9-8.3,1-16.3,3.1-24.3c0.2-0.8,0.4-1.7,0.7-2.9c-0.8,0.5-1.3,0.8-1.8,1.1c-13.9,9.6-28.6,17.8-43.6,25.5
				c-1.3,0.7-2.1,1.5-2.6,2.9c-4.1,11.9-8.8,23.5-15.3,34.3c-4.6,7.7-9.8,14.9-17.3,19.9c-5.8,3.8-12.1,5.8-19.1,3.9
				c-7.3-2-11.4-9.3-9.6-16.8c1.6-6.5,5.4-11.3,10.2-15.6c10.2-9.1,22.4-15.2,34.4-21.5c2.5-1.3,5.1-2.5,7.6-3.9
				c0.6-0.4,1.4-1,1.5-1.7c3.3-10.9,6.5-21.7,9.8-32.6C294.3,372.8,294.2,372.5,294.2,372.3z M352.2,365.5c1.1-0.7,1.7-1,2.3-1.5
				c11.6-8,22.4-17,32.5-27c7.6-7.6,14.8-15.5,20.4-24.9c2.8-4.6,5-9.5,5.4-15c0.3-4.5-1.5-9.1-7.8-7.6c-2.8,0.6-5.5,1.9-7.9,3.5
				c-6.1,4.1-10.8,9.8-15.1,15.7c-10,13.7-17.8,28.7-24.6,44.3C355.6,357,354.1,361,352.2,365.5z M283,410.2c-0.6,0.2-0.8,0.2-1,0.2
				c-11.1,5.6-22.1,11.2-32.2,18.5c-5,3.6-9.6,7.6-12.9,12.9c-2.1,3.5-3.3,7.3-2.7,11.4c0.9,5.6,6.6,8.6,12.7,7.1
				c5.8-1.5,10.1-5.1,14-9.5c5.9-6.7,10.3-14.4,14.1-22.5C277.8,422.5,280.2,416.5,283,410.2z M422.3,377.9c0,6.7,4,9.1,9.8,6.1
				c0.3-0.1,0.5-0.3,0.8-0.5c8.5-5.7,14.5-13.4,18.1-22.9c0.3-0.8,0.1-2-0.4-2.7c-2.1-3.3-5.9-4.4-10.4-3.4
				C430.9,356.7,422.3,367.9,422.3,377.9z"/>
			<path class="st0" d="M158.2,293.7c-1.2-2.6-3.2-4.8-5.7-5.9c-2.8-1.3-5.9-1.5-8.9-0.8c-6.9,1.5-12.1,7-15.3,13.1
				c-4.8,9.3-5,19.3-2.7,29.1c2.1,9.2,5.1,18.2,7.8,27.2c2.9,9.5,5,19,3.5,29c-2.4,15.4-10.1,27.5-22.6,36.3
				C101.8,430.4,88,433,73.1,430c-9.7-2-18-6.5-23.6-15c-7.8-12-7.2-24.4-0.5-36.6c9.9-17.9,31.2-24.2,48.7-19.8
				c5.8,1.5,10.7,4.4,13.8,9.7c4.1,7,3,16.3-2.6,23.3c-3.2,4-6.9,7.1-11.4,9.5c-0.9,0.5-1.7,1.2-1,2.2c0.3,0.4,1.6,0.6,2.2,0.3
				c5.1-2.4,9.6-5.8,13.1-10.3c4.5-5.7,6.5-12.3,5.3-19.5c-1.7-9.7-7.7-16-16.4-19.9c-7.4-3.3-15.3-3.7-23.2-2.6
				c-15,2-26.9,9-34.9,22.2c-11,18-5.9,41.3,11.5,53.1c9.7,6.5,20.4,9.2,31.9,9c1.7,0,3.5,0.1,5.2,0c1.4-0.1,2.8-0.4,4.2-0.6
				c15.9-2.5,28.8-10.3,38.7-22.9c11.2-14.3,15.1-30.6,10.7-48.4c-2.1-8.3-5.1-16.4-7.9-24.6c-2.7-7.9-5.2-15.9-5.4-24.4
				c-0.1-4.7,0.7-9.6,2.8-13.9c1.9-3.8,4.7-7.7,8.7-9.5c8.9-3.8,14.5,7,11.1,14.4c-0.3,0.5-0.5,1-0.5,1.5c0,0.8,0.6,1.4,1.4,1.2
				c0,0,0,0,0.1,0c0.8-0.2,1.5-1.3,2-1.9C160.1,303,160.2,297.8,158.2,293.7z"/>
			<path class="st0" d="M232.7,300.5c-0.2,7-2.6,13-5.8,18.6c-6.9,11.7-16,21.6-25.9,30.7c-7.2,6.6-14.7,12.7-22.1,19.1
				c-0.6,0.5-1.1,1.2-1.3,1.9c-3.8,12.1-7.5,24.2-11.2,36.3c-0.7,2.4-1.8,2.9-4,1.8c-2.5-1.3-3.4-3.3-2.7-6.2
				c4.6-18.5,10.4-36.6,17.4-54.3c5.3-13.5,11.2-26.7,19.1-38.9c4.3-6.6,9-13,15.8-17.3c4-2.6,8.3-3.9,13.1-2.6
				C229.9,290.7,232.7,294.9,232.7,300.5z M179.9,364c0.8-0.5,1.1-0.7,1.5-1c9.5-7.6,18.6-15.7,26.8-24.8
				c5.9-6.6,11.4-13.6,15.4-21.6c2.6-5.2,4.5-10.7,4.3-16.7c-0.2-5.2-4.2-8.2-8.8-6.5c-1.7,0.6-3.3,1.7-4.7,2.9
				c-4.5,3.7-7.7,8.5-10.6,13.5c-8.7,14.6-15,30.4-20.9,46.3C181.8,358.6,180.9,361.1,179.9,364z"/>
		</g>
	</g>
</g>
</svg>
